<?xml version="1.0" encoding="UTF-8"?><svg id="Layer_1" xmlns="http://www.w3.org/2000/svg" viewBox="0 0 512 512"><defs><style>.cls-1{fill:#76b900;}</style></defs><path d="M306.48,229.15v56.73h16.01v-56.73h-16.01Zm-125.96-.1v56.78h16.15v-44.09l12.6,.05c4.13,0,7.02,1.01,8.99,3.12,2.55,2.69,3.56,7.07,3.56,15v25.91h15.67v-31.35c0-22.4-14.28-25.43-28.22-25.43h-28.75Zm151.78,.1v56.73h25.96c13.85,0,18.37-2.31,23.22-7.45,3.46-3.61,5.67-11.59,5.67-20.29,0-7.98-1.88-15.1-5.19-19.52-5.87-7.93-14.42-9.47-27.21-9.47h-22.45Zm15.87,12.31h6.87c10,0,16.44,4.47,16.44,16.11s-6.44,16.15-16.44,16.15h-6.87v-32.26Zm-64.76-12.31l-13.37,44.95-12.79-44.95h-17.31l18.27,56.73h23.08l18.46-56.73h-16.35Zm111.25,56.73h16.01v-56.73h-16.01v56.73Zm44.9-56.73l-22.36,56.68h15.77l3.56-10.05h26.44l3.37,10h17.16l-22.55-56.63h-21.39Zm10.38,10.34l9.71,26.54h-19.71l10-26.54Z"/><path class="cls-1" d="M77.2,238.57v-7.79c.77-.05,1.54-.1,2.31-.1,21.35-.67,35.34,18.37,35.34,18.37,0,0-15.1,20.96-31.3,20.96-2.16,0-4.28-.34-6.3-1.01v-23.65c8.32,1.01,10,4.66,14.95,12.98l11.11-9.33s-8.12-10.62-21.78-10.62c-1.44-.05-2.88,.05-4.33,.19m0-25.77v11.63l2.31-.14c29.66-1.01,49.04,24.33,49.04,24.33,0,0-22.21,27.02-45.34,27.02-2.02,0-3.99-.19-5.96-.53v7.21c1.63,.19,3.32,.34,4.95,.34,21.54,0,37.12-11.01,52.21-23.99,2.5,2.02,12.74,6.87,14.86,8.99-14.33,12.02-47.74,21.68-66.68,21.68-1.83,0-3.56-.1-5.29-.29v10.14h81.83v-86.39H77.2Zm0,56.2v6.15c-19.9-3.56-25.43-24.28-25.43-24.28,0,0,9.57-10.58,25.43-12.31v6.73h-.05c-8.32-1.01-14.86,6.78-14.86,6.78,0,0,3.7,13.12,14.9,16.92m-35.34-18.99s11.78-17.4,35.38-19.23v-6.35c-26.15,2.12-48.75,24.23-48.75,24.23,0,0,12.79,37.02,48.7,40.38v-6.73c-26.35-3.27-35.34-32.31-35.34-32.31Z"/></svg>